<?xml version="1.0" encoding="UTF-8"?>
<svg id="Layer_1" data-name="Layer 1" xmlns="http://www.w3.org/2000/svg" width="1086.81" height="1086.81" viewBox="0 0 1086.81 1086.81">
  <path d="M576.84,725.37c12.26,13.38,22.51,28.61,29.19,45.48,.83,2.09,1.61,4.2,2.35,6.34,5.45,15.61,8.38,32.37,8.38,49.85,0,34.7-11.58,66.68-31.22,92.3-.5,.65-1.46,.69-2.02,.09l-204.17-218.44s-10.05-10.81-10.1-10.86l-17.37-18.58-.1-.15c-45.86-53.43-73.53-122.87-73.53-198.83,0-21.31,2.17-42.17,6.36-62.27,8.43-40.86,25.05-78.78,48.13-111.91,26.26-37.83,60.91-69.44,101.21-92.17,44.29-25,95.4-39.24,149.89-39.24,.91,0,1.82,0,2.73,.05,.97,0,1.95,.02,2.92,.04,66.13,1.13,128.32,30.53,172.6,79.67,24.39,27.07,46.49,60.21,46.49,91.39,0,43.07-17.76,82.04-46.37,109.86-1.27,1.23-3.38,.46-3.64-1.29-6.35-43.22-28.33-81.32-60.04-108.47-30.2-25.81-69.24-41.61-111.96-42.22-.91-.05-1.82-.05-2.73-.05-20,0-39.24,3.33-57.17,9.44-7.93,2.73-15.66,6.01-23.03,9.75-34.54,17.68-62.47,46.31-79.19,81.36-11.06,23.03-17.22,48.84-17.22,76.06,0,25,5.2,48.84,14.59,70.35,9.82,22.5,25.67,42.36,43.23,60.4l111.79,122.06Z" fill="#531c8f"/>
  <path d="M724.63,578.46c0-8.62-1.85-18.7-4.62-28.96-9.58-35.49-28.57-67.75-53.83-94.47,0,0-39.58-40.76-45.87-44.2-9.75-5.33-20.91-8.37-32.79-8.37-.3,0-.66,0-.96,.05-22.02,.25-41.51,10.96-53.83,27.32-.05,.1-.1,.15-.15,.2-8.49,11.41-13.54,25.6-13.54,40.91,0,16.36,5.76,31.41,15.35,43.18l6.51,6.97,45.65,48.89,62.42,66.81,38.73,41.41c22.88-26.61,36.71-61.16,36.92-98.93v-.81Z" fill="#531c8f"/>
</svg>