<svg xmlns="http://www.w3.org/2000/svg" width="493.871" height="220.437" viewBox="0 0 493.871 220.437">
  <path id="Path_14" data-name="Path 14" d="M2133.3,428.14a43.658,43.658,0,0,1,8.547,13.316q.363.918.687,1.856a44.556,44.556,0,0,1-6.685,41.618.389.389,0,0,1-.591.028L2075.474,421l-2.957-3.179-5.087-5.441-.03-.045a89.461,89.461,0,0,1,67.945-147.689c.267,0,.533,0,.8.014.285,0,.57.006.854.011A69.756,69.756,0,0,1,2187.534,288c7.142,7.926,13.612,17.628,13.612,26.759a44.744,44.744,0,0,1-13.576,32.167.635.635,0,0,1-1.065-.378,51.678,51.678,0,0,0-50.361-44.121c-.266-.015-.532-.015-.8-.015a51.812,51.812,0,0,0-16.738,2.765,53.217,53.217,0,0,0-6.743,2.854,51.9,51.9,0,0,0-23.185,23.821,51.729,51.729,0,0,0-.769,42.867c2.876,6.588,7.517,12.4,12.657,17.685Zm43.273-43.014a33.953,33.953,0,0,0-1.354-8.481,65.23,65.23,0,0,0-15.76-27.659s-11.589-11.935-13.432-12.941a19.952,19.952,0,0,0-9.6-2.451,1.762,1.762,0,0,0-.281.015,20,20,0,0,0-15.763,8,.19.19,0,0,1-.044.06,20.053,20.053,0,0,0,.532,24.62l1.908,2.04,13.367,14.314L2154.42,402.2l11.342,12.126a44.649,44.649,0,0,0,10.809-28.968Zm213.356,95.7a5.948,5.948,0,0,0,1.8-4.371v-61.5a6.144,6.144,0,0,0-6.118-6.12,5.961,5.961,0,0,0-4.373,1.8,5.893,5.893,0,0,0-1.8,4.319v61.5a6.145,6.145,0,0,0,10.491,4.371Zm75.649-9a6.144,6.144,0,0,0,0-8.692,6.146,6.146,0,0,0-8.69,0,24.606,24.606,0,1,1,0-34.814,6.145,6.145,0,1,0,8.69-8.691,36.9,36.9,0,1,0,0,52.2Zm23.147,9a5.948,5.948,0,0,0,1.8-4.371V457.177a2.524,2.524,0,0,0,.771-.515l6.07-4.834,32.088,29.21a5.912,5.912,0,0,0,4.114,1.594,6.141,6.141,0,0,0,6.171-6.428,5.813,5.813,0,0,0-2.006-4.269l-30.649-27.872,30.342-24.272a5.861,5.861,0,0,0,2.262-4.165,5.711,5.711,0,0,0-1.286-4.475,6.058,6.058,0,0,0-8.639-.976l-39.238,31.367V414.956a6.146,6.146,0,0,0-6.118-6.12,5.959,5.959,0,0,0-4.373,1.8,5.894,5.894,0,0,0-1.8,4.319v61.5a6.145,6.145,0,0,0,10.491,4.371Zm-243.515,0a5.949,5.949,0,0,0,1.8-4.371V451.879h30.753a6.146,6.146,0,0,0,6.171-6.17,6.149,6.149,0,0,0-6.171-6.12h-30.753V421.128H2290.1a6.146,6.146,0,0,0,0-12.292h-49.212a5.956,5.956,0,0,0-4.372,1.8,5.893,5.893,0,0,0-1.8,4.319v61.5a6.145,6.145,0,0,0,10.491,4.371Zm74.158-10.489V414.956a6.146,6.146,0,0,0-6.118-6.12,5.959,5.959,0,0,0-4.373,1.8,5.894,5.894,0,0,0-1.8,4.319v61.5a6.146,6.146,0,0,0,6.172,6.172h49.212a6.145,6.145,0,0,0,0-12.29Z" transform="translate(-2045.871 -264.644)" fill="#fff"/>
</svg>
